<svg width="52" height="37" viewBox="0 0 52 37" fill="none" xmlns="http://www.w3.org/2000/svg">
<path d="M13.5419 0.385716C15.7009 0.972216 17.9089 0.851916 20.1273 0.822016C20.5791 0.818416 21.0309 0.815117 21.4827 0.811917C22.6053 0.802917 23.7277 0.788615 24.8502 0.772015C25.4454 0.763615 26.0406 0.756716 26.6358 0.750416C27.4816 0.741116 28.3272 0.728616 29.1729 0.712616C29.4763 0.707016 29.7797 0.702116 30.0831 0.698016C30.4989 0.691716 30.9144 0.681916 31.3301 0.670916C31.5597 0.666016 31.7893 0.661116 32.0259 0.656016C32.7154 0.566016 33.175 0.336016 33.7829 0.00831559C34.4431 -0.0337844 34.7683 0.0773163 35.2798 0.494816C35.88 1.10822 36.3212 1.62972 36.3773 2.50832C36.2358 3.21592 36.2358 3.21592 35.882 3.66402C34.3679 4.45142 32.5682 4.44712 30.8948 4.59392C30.7347 4.60832 30.5746 4.62272 30.4096 4.63762C30.2645 4.65002 30.1194 4.66252 29.9699 4.67532C29.6283 4.69162 29.6283 4.69162 29.4433 4.91402C29.1289 4.92172 28.8143 4.92212 28.4999 4.91402C28.4999 4.85172 28.4999 4.78952 28.4999 4.72532C28.3057 4.71822 28.3057 4.71822 28.1075 4.71102C27.5229 4.68922 26.9383 4.66602 26.3537 4.64282C26.1499 4.63542 25.9461 4.62792 25.7361 4.62032C25.5415 4.61242 25.3469 4.60452 25.1464 4.59642C24.9666 4.58942 24.7868 4.58252 24.6015 4.57542C24.1603 4.53672 24.1603 4.53672 23.7829 4.34802C23.8773 4.57842 23.9716 4.80882 24.0688 5.04622C24.9673 7.25662 25.7914 9.48132 26.5542 11.7418C26.609 11.9035 26.6639 12.0651 26.7205 12.2317C27.612 14.8584 28.472 17.495 29.3136 20.1381C29.3669 20.3049 29.4202 20.4717 29.4752 20.6436C29.6259 21.1163 29.7755 21.5893 29.9246 22.0624C29.9689 22.2013 30.0132 22.3401 30.0588 22.4831C30.2912 23.2267 30.468 23.9535 30.5754 24.7253C31.2236 24.5316 31.3584 24.301 31.7156 23.709C31.8524 23.4394 31.9871 23.1689 32.1202 22.8975C32.2699 22.6033 32.4203 22.3095 32.5713 22.016C32.6473 21.8683 32.7233 21.7205 32.8016 21.5683C33.1327 20.9431 33.4956 20.3399 33.8655 19.7371C34.4699 18.7465 35.0497 17.7459 35.6108 16.73C35.6881 16.5904 35.7653 16.4507 35.845 16.3068C36.2004 15.6635 36.555 15.0198 36.9087 14.3756C43.4626 2.45312 43.4626 2.45312 45.6933 1.69472C46.3043 1.70802 46.6529 1.77092 47.1792 2.08382C47.715 2.65542 47.7928 3.14202 47.7688 3.89992C47.5454 5.50382 46.4912 6.70172 45.4693 7.89752C43.0111 10.8448 41.1952 14.367 39.2742 17.6798C38.847 18.4162 38.4167 19.1506 37.984 19.8838C36.6604 22.1298 35.3925 24.3996 34.1588 26.6961C33.652 27.6394 33.1381 28.5784 32.6155 29.5131C32.5471 29.6365 32.4786 29.7599 32.4082 29.8871C32.1423 30.3601 31.9045 30.7547 31.5188 31.1404C30.4104 31.2939 29.4399 31.2163 28.4999 30.5744C28.0035 30.0088 27.7942 29.4857 27.5867 28.7665C27.5237 28.5515 27.4606 28.3365 27.3956 28.115C27.2943 27.7622 27.2943 27.7622 27.191 27.4022C27.0793 27.0215 26.967 26.6409 26.8547 26.2604C26.7747 25.9892 26.6948 25.718 26.6152 25.4468C24.9321 19.7169 23.2296 13.9703 20.8702 8.47532C20.7945 8.29862 20.7189 8.12192 20.6409 7.93992C20.2648 7.09132 19.9118 6.33872 19.2546 5.66872C19.1592 5.56912 19.0638 5.46942 18.9655 5.36672C17.8006 4.31212 16.5894 4.37482 15.0801 4.38332C14.6118 4.37872 14.1436 4.37352 13.6753 4.36792C13.4449 4.36592 13.2144 4.36402 12.977 4.36192C9.001 4.28302 9.001 4.28302 7.9339 3.21592C7.8352 2.49232 7.9027 2.14152 8.2523 1.49422C8.7792 0.839216 9.2454 0.325916 10.0565 0.0555158C11.3593 -0.0628842 12.2895 0.00291598 13.5419 0.385716Z" fill="#F95822"/>
<path d="M17.2261 6.3291C18.0684 6.4414 18.7941 6.6108 19.4431 7.1782C20.098 8.3477 20.4822 9.5256 20.8457 10.8117C20.9681 11.2343 21.0905 11.6568 21.213 12.0793C21.2763 12.2995 21.3395 12.5197 21.4047 12.7465C22.9538 18.1236 24.5819 23.4776 26.6955 28.664C26.8021 28.9281 26.8021 28.9281 26.911 29.1975C27.483 30.5458 28.1669 31.7626 29.3959 32.6027C30.2427 33.189 30.2427 33.189 30.3865 33.782C30.3637 34.8316 29.9608 35.3229 29.2544 36.0461C28.3106 36.3607 27.4049 36.403 26.4242 36.2348C24.5938 35.1207 23.6633 32.7059 22.9698 30.78C22.8983 30.5854 22.8269 30.3908 22.7532 30.1903C21.9052 27.8565 21.1388 25.4957 20.3747 23.1334C20.2317 22.6939 20.0886 22.2546 19.9454 21.8152C19.5946 20.7378 19.2457 19.6599 18.8978 18.5816C18.7548 18.1385 18.6114 17.6954 18.4679 17.2525C18.2541 16.5928 18.0411 15.9329 17.8283 15.273C17.7628 15.0712 17.6973 14.8695 17.6298 14.6616C17.5407 14.3845 17.5407 14.3845 17.4499 14.1018C17.3974 13.9392 17.3448 13.7767 17.2908 13.6092C17.179 13.2159 17.179 13.2159 17.179 12.8386C16.4142 13.5018 16.0084 14.2822 15.5398 15.1617C14.9445 16.2572 14.3381 17.3404 13.6884 18.4046C13.0959 19.3795 12.529 20.3652 11.9785 21.3645C4.63048 34.6788 4.63048 34.6788 2.27328 35.8574C1.58738 35.9336 1.22418 35.9017 0.610579 35.5744C0.0619786 34.9475 -0.034021 34.4012 0.00907902 33.5933C0.330379 32.1355 1.30298 31.0924 2.21058 29.9493C5.30708 26.0276 7.70968 21.4971 10.1978 17.1782C10.2978 17.0048 10.3977 16.8314 10.5006 16.6528C11.4976 14.9207 12.4839 13.1833 13.4525 11.4353C13.679 11.0271 13.9054 10.619 14.1319 10.211C14.2763 9.9505 14.4203 9.6899 14.5642 9.4292C14.7663 9.0634 14.9701 8.6985 15.1742 8.3338C15.2885 8.1281 15.4029 7.9223 15.5206 7.7103C16.0042 6.9481 16.3124 6.4697 17.2261 6.3291Z" fill="#F95822"/>
<path d="M16.5069 16.4593C17.2728 16.8489 17.2916 16.9265 17.5484 17.6968C17.6115 17.8839 17.6746 18.0711 17.7397 18.2639C18.0801 19.3384 18.4102 20.4156 18.7357 21.4947C19.2633 23.2185 19.8151 24.9275 20.4574 26.6126C20.518 26.7724 20.5786 26.9321 20.6411 27.0967C21.1297 28.3496 21.6618 29.2619 22.6508 30.1975C22.4482 30.7475 22.3153 31.099 21.8961 31.5183C20.6444 31.706 20.6444 31.706 20.093 31.3044C19.1705 30.2556 18.7741 29.0786 18.3348 27.7683C18.2551 27.5382 18.1755 27.3082 18.0935 27.0712C17.3107 24.7925 16.574 22.4981 15.8583 20.1975C15.0792 21.0813 14.5503 22.085 13.9833 23.1102C13.765 23.4998 13.5463 23.8892 13.3274 24.2784C13.2157 24.4772 13.104 24.6759 12.9889 24.8807C12.4534 25.8308 11.9129 26.7778 11.3654 27.7211C11.2233 27.9711 11.2233 27.9711 11.0784 28.2263C10.4268 29.3416 9.70804 30.5159 8.68854 31.3296C8.19414 31.3988 8.19414 31.3988 7.74514 31.3296C7.36784 30.9522 7.36784 30.9522 7.27344 30.4687C7.41394 29.5028 7.93604 28.9033 8.49994 28.122C10.3999 25.3868 12.05 22.507 13.6804 19.6049C13.7832 19.4227 13.886 19.2404 13.9919 19.0526C14.1865 18.7069 14.3798 18.3604 14.5718 18.0132C14.6585 17.8589 14.7452 17.7046 14.8346 17.5457C14.9097 17.4105 14.9848 17.2753 15.0621 17.136C15.4843 16.5221 15.7735 16.4193 16.5069 16.4593Z" fill="#F95822"/>
<path d="M27.368 6.235C29.405 8.0554 30.0291 11.5227 30.8349 14.0534C30.9388 14.3769 31.0427 14.7003 31.1467 15.0237C31.3976 15.8045 31.6473 16.5857 31.8963 17.3671C32.0208 17.3671 32.1453 17.3671 32.2736 17.3671C32.3378 17.2509 32.402 17.1347 32.4682 17.0149C33.7282 14.7389 35.0011 12.4695 36.3134 10.2231C36.503 9.8977 36.6906 9.5711 36.8782 9.2444C38.2135 6.9732 38.2135 6.9732 39.2548 6.235C39.7972 6.235 39.7972 6.235 40.1982 6.4237C40.3868 6.6124 40.3868 6.6124 40.4458 7.2138C40.3752 8.0748 40.1299 8.3665 39.6321 9.0652C37.2558 12.4935 35.2 16.1078 33.211 19.772C32.9313 20.2836 32.6883 20.7259 32.2736 21.1407C31.64 21.2233 31.287 21.2468 30.7622 20.864C30.2387 20.1973 30.0596 19.5127 29.8296 18.7048C29.7549 18.4553 29.7549 18.4553 29.6787 18.2008C29.5194 17.668 29.3632 17.1344 29.2076 16.6006C28.603 14.5311 27.9854 12.4792 27.1704 10.481C27.1129 10.3355 27.0553 10.19 26.996 10.0401C26.5793 9.0561 26.0666 8.4765 25.2925 7.7444C25.1864 7.2374 25.1864 7.2374 25.2925 6.801C25.852 6.055 26.5108 5.9161 27.368 6.235Z" fill="#F95822"/>
<path d="M43.2168 14.3481C44.242 14.4458 45.2218 14.5869 46.2231 14.8272C46.6473 14.9289 46.6473 14.9289 47.2262 14.9849C47.8664 15.1304 48.2084 15.4199 48.6885 15.8576C48.6262 16.1689 48.5639 16.4802 48.4998 16.801C48.0595 16.801 47.6193 16.801 47.179 16.801C46.7637 17.5187 46.7637 17.5187 46.613 18.3104C46.7998 18.4349 46.9866 18.5594 47.179 18.6877C47.1168 18.9991 47.0545 19.3104 46.9903 19.6311C46.6837 19.7726 46.6837 19.7726 46.2356 19.8198C45.3456 19.3839 45.0612 18.9996 44.7013 18.1001C44.3751 17.3916 43.8642 16.7909 43.3822 16.1818C43.1541 15.8738 43.1541 15.8738 42.8394 15.2915C42.9787 14.7446 42.9787 14.7446 43.2168 14.3481ZM45.2922 16.2349C45.3545 16.4217 45.4168 16.6085 45.4809 16.801C45.6054 16.801 45.73 16.801 45.8583 16.801C45.8583 16.6142 45.8583 16.4274 45.8583 16.2349C45.6715 16.2349 45.4847 16.2349 45.2922 16.2349Z" fill="#F95822"/>
<path d="M8.12247 1.70654C8.18477 1.70654 8.24707 1.70654 8.31117 1.70654C8.33457 1.91674 8.35787 2.12684 8.38197 2.34334C8.43317 3.03314 8.43317 3.03314 8.87727 3.40464C10.2758 3.73464 11.7024 3.80924 13.1336 3.82034C13.2706 3.82164 13.4076 3.82284 13.5487 3.82414C14.112 3.82794 14.6752 3.83034 15.2385 3.82544C17.9258 3.80744 17.9258 3.80744 18.7579 4.51684C18.929 4.70724 19.0953 4.90234 19.2546 5.10274C19.422 5.25454 19.5893 5.40634 19.7617 5.56274C20.6443 6.54074 21.1466 7.74294 21.6485 8.94714C21.7131 9.10204 21.7777 9.25694 21.8443 9.41654C23.7986 14.1699 25.3949 19.1063 26.8025 24.0481C26.8491 24.2113 26.8957 24.3746 26.9437 24.5428C27.17 25.3379 27.3933 26.1336 27.6124 26.9307C27.6937 27.2206 27.7751 27.5104 27.8565 27.8003C27.8914 27.9309 27.9263 28.0615 27.9623 28.1961C28.2013 29.0389 28.5271 29.6946 29.0659 30.3858C29.5864 30.6385 29.5864 30.6385 30.1508 30.7395C30.4296 30.803 30.4296 30.803 30.7139 30.8678C30.855 30.8955 30.9961 30.9232 31.1414 30.9518C31.1414 31.0141 31.1414 31.0763 31.1414 31.1405C30.0846 31.1951 29.4155 31.1706 28.4999 30.5744C28.0022 30.0102 27.7941 29.4853 27.5867 28.7665C27.5236 28.5515 27.4606 28.3365 27.3956 28.115C27.2943 27.7622 27.2943 27.7622 27.1909 27.4023C27.0793 27.0215 26.967 26.641 26.8547 26.2604C26.7747 25.9893 26.6948 25.7181 26.6152 25.4468C24.9321 19.7169 23.2296 13.9703 20.8702 8.47544C20.7945 8.29874 20.7188 8.12204 20.6409 7.93994C20.2648 7.09144 19.9118 6.33874 19.2546 5.66884C19.1592 5.56914 19.0638 5.46944 18.9655 5.36674C17.8006 4.31224 16.5894 4.37494 15.0801 4.38344C14.6118 4.37874 14.1436 4.37364 13.6753 4.36794C13.4449 4.36604 13.2144 4.36404 12.977 4.36204C9.00097 4.28314 9.00097 4.28314 7.93387 3.21604C7.87097 2.20974 7.87097 2.20974 8.12247 1.70654Z" fill="#837772"/>
<path d="M38.472 25.0191C39.1107 25.1515 39.3988 25.3614 39.8208 25.8578C40.2637 26.7007 40.5322 27.5442 40.3868 28.4993C40.092 29.1243 40.092 29.1243 39.6321 29.6314C38.8038 29.9127 38.4267 29.867 37.6156 29.5371C36.9145 29.076 36.509 28.5368 36.2359 27.7446C36.1013 27.0882 36.112 26.5157 36.3892 25.888C36.9517 25.0579 37.5397 24.9478 38.472 25.0191ZM37.5566 26.2352C37.4911 26.7858 37.4621 27.2045 37.7468 27.6945C38.0193 28.0504 38.0193 28.0504 38.5 28.4993C38.6868 28.4993 38.8736 28.4993 39.0661 28.4993C39.0152 27.4302 39.0152 27.4302 38.5236 26.5182C38.1274 26.1808 38.1274 26.1808 37.5566 26.2352Z" fill="#F95822"/>
<path d="M42.2617 17.6147C43.15 17.6853 43.5608 18.0455 44.1603 18.6878C44.6886 19.5284 44.6606 20.5565 44.5377 21.518C44.2546 22.1076 44.2546 22.1076 43.7829 22.4614C43.0142 22.6 42.5829 22.6358 41.902 22.2521C41.0937 21.615 40.6687 20.9956 40.3867 20.0086C40.3867 19.2441 40.5636 18.8958 40.9645 18.2397C41.5188 17.7444 41.5188 17.7444 42.2617 17.6147ZM42.0848 18.8765C41.9603 19.001 41.8358 19.1256 41.7075 19.2539C41.7522 20.0806 42.0918 20.5487 42.6509 21.1407C42.8377 21.2029 43.0245 21.2652 43.2169 21.3293C43.4226 20.6937 43.4189 20.4218 43.1815 19.7845C42.8403 19.2551 42.6683 19.0777 42.0848 18.8765Z" fill="#F95822"/>
<path d="M45.8585 10.0083C46.1939 10.0474 46.1939 10.0474 46.6014 10.1616C47.4556 10.3772 48.2865 10.4659 49.1641 10.5279C49.5899 10.5702 49.9758 10.6471 50.3868 10.763C50.4222 11.2112 50.4222 11.2112 50.3868 11.7064C49.804 12.095 49.6869 12.1289 49.0307 12.1074C48.6746 12.0957 48.6746 12.0957 48.3113 12.0838C48.4248 12.9717 48.4248 12.9717 48.6297 13.8409C48.6492 13.9459 48.6687 14.051 48.6887 14.1593C48.3113 14.5366 48.3113 14.5366 47.8713 14.6464C47.368 14.5366 47.368 14.5366 46.9176 13.9374C46.7694 13.6793 46.6248 13.419 46.4835 13.1569C46.3374 12.8982 46.1912 12.6395 46.045 12.3808C45.9818 12.2652 45.9187 12.1496 45.8536 12.0305C45.6806 11.7254 45.487 11.4322 45.2925 11.1404C45.3602 10.5818 45.4522 10.4146 45.8585 10.0083Z" fill="#F95822"/>
<path d="M34.5378 29.6313C34.9012 29.6637 34.9012 29.6638 35.3515 29.7729C36.5188 30.0361 37.6941 30.2117 38.8774 30.386C38.9954 30.728 38.9954 30.728 39.0661 31.1407C38.8793 31.4209 38.8793 31.4209 38.6888 31.7068C38.1566 31.762 38.1566 31.762 37.5331 31.7421C37.223 31.7345 37.223 31.7345 36.9066 31.7267C36.7476 31.7201 36.5885 31.7135 36.4246 31.7068C36.4949 31.8048 36.5652 31.9028 36.6376 32.0038C37.3758 33.0919 37.3758 33.0919 37.3326 33.7822C37.282 33.9068 37.2315 34.0313 37.1793 34.1596C36.9303 34.2218 36.6812 34.2841 36.4246 34.3483C35.8217 33.6179 35.2821 32.8623 34.7619 32.0723C34.6431 31.8992 34.6431 31.8992 34.522 31.7226C33.9663 30.8758 33.9663 30.8759 33.9932 30.3279C34.1605 30.0087 34.1605 30.0086 34.5378 29.6313Z" fill="#F95822"/>
<path d="M16.8018 12.6499C17.0508 12.6499 17.2999 12.6499 17.5565 12.6499C18.1107 14.2861 18.6451 15.9277 19.1661 17.5747C20.8832 23.0045 20.8832 23.0045 22.6991 28.4019C22.7988 28.6894 22.8978 28.9773 22.996 29.2653C24.2043 33.0682 24.2043 33.0682 26.8018 35.8575C27.6358 35.9754 28.4191 35.9492 29.2546 35.8575C28.3613 36.453 27.4656 36.4253 26.4244 36.2348C24.5942 35.1179 23.6641 32.7077 22.9699 30.7801C22.8985 30.5855 22.827 30.3909 22.7534 30.1904C21.9054 27.8566 21.1389 25.4957 20.3749 23.1334C20.2319 22.694 20.0887 22.2546 19.9456 21.8152C19.5948 20.7379 19.2459 19.66 18.898 18.5817C18.7549 18.1385 18.6116 17.6955 18.4681 17.2525C18.2543 16.5929 18.0413 15.933 17.8284 15.273C17.763 15.0713 17.6975 14.8695 17.63 14.6617C17.5409 14.3845 17.5409 14.3845 17.45 14.1018C17.3975 13.9393 17.345 13.7767 17.2909 13.6093C17.1791 13.216 17.1791 13.216 17.1791 12.8386C17.0546 12.7763 16.9301 12.7141 16.8018 12.6499Z" fill="#857772"/>
<path d="M49.0894 5.75146C49.6716 5.86536 49.8538 5.95277 50.1979 6.42367C50.4211 6.87017 50.4118 7.15346 50.4102 7.65006C50.4109 7.87486 50.4109 7.87486 50.4116 8.10406C50.3866 8.49916 50.3866 8.49916 50.1979 8.87646C50.3185 8.91926 50.4392 8.96217 50.5635 9.00627C50.9526 9.25387 50.9526 9.25387 51.1059 9.73737C51.1176 9.88917 51.1293 10.0409 51.1413 10.1973C50.9526 10.386 50.9526 10.386 50.5288 10.4376C49.8729 10.3724 49.5763 10.1447 49.054 9.74916C48.5061 9.33876 47.9914 8.97297 47.3677 8.68787C47.3892 7.80887 47.4287 7.03987 47.9691 6.31757C48.4998 5.85767 48.4998 5.85766 49.0894 5.75146ZM48.8772 7.17837C48.8772 7.42747 48.8772 7.67647 48.8772 7.93307C49.0017 7.93307 49.1262 7.93307 49.2545 7.93307C49.1922 7.68407 49.13 7.43497 49.0658 7.17837C49.0036 7.17837 48.9413 7.17837 48.8772 7.17837Z" fill="#F95822"/>
<path d="M39.632 20.9521C40.0094 20.9993 40.0094 20.9994 40.3867 21.1409C40.449 21.3277 40.5112 21.5143 40.5754 21.7068C40.3867 22.0842 40.198 22.4615 40.0094 22.8389C40.2163 23.4596 40.3188 23.5453 40.8348 23.9002C40.9491 23.9805 41.0634 24.0607 41.1812 24.1434C41.5414 24.3791 41.5414 24.3791 42.0848 24.537C42.2027 24.9851 42.2027 24.9851 42.2735 25.4804C41.8961 25.8577 41.8961 25.8577 41.4731 25.9329C40.7458 25.8278 40.3687 25.4864 39.7971 25.0323C39.602 24.879 39.407 24.7258 39.206 24.5679C39.0353 24.4332 38.8645 24.2985 38.6886 24.1596C38.5018 24.0351 38.315 23.9106 38.1226 23.7823C38.2284 23.0364 38.4475 22.5584 38.8773 21.9426C38.9785 21.7957 39.0796 21.6488 39.1839 21.4975C39.4433 21.1408 39.4433 21.1408 39.632 20.9521Z" fill="#F95822"/>
<path d="M25.4811 6.6123C25.4994 6.7247 25.5177 6.8371 25.5366 6.9529C25.6971 7.452 25.8951 7.6172 26.2903 7.9551C27.0988 8.7331 27.4381 9.5557 27.816 10.5981C27.8858 10.7833 27.9556 10.9684 28.0276 11.1591C28.9867 13.7561 29.7786 16.4163 30.5542 19.0728C30.6045 19.2441 30.6548 19.4155 30.7066 19.5921C30.7499 19.7417 30.7932 19.8913 30.8379 20.0455C30.9246 20.3857 30.9246 20.3857 31.1414 20.5745C31.5807 20.6439 32.021 20.7071 32.4622 20.7632C32.3999 20.8878 32.3377 21.0123 32.2735 21.1406C31.2679 21.232 31.2679 21.232 30.7606 20.8653C30.2397 20.1973 30.0593 19.5123 29.8295 18.7047C29.7548 18.4552 29.7548 18.4552 29.6786 18.2007C29.5193 17.6679 29.3631 17.1344 29.2075 16.6005C28.6029 14.531 27.9853 12.4791 27.1703 10.4809C27.1128 10.3354 27.0552 10.1899 26.9959 10.04C26.579 9.0556 26.0644 8.4787 25.2924 7.7444C25.2098 7.2137 25.2098 7.2137 25.2924 6.801C25.3546 6.7387 25.4169 6.6764 25.4811 6.6123Z" fill="#82746E"/>
<path d="M15.6699 19.6313C15.8567 19.6313 16.0435 19.6313 16.2359 19.6313C16.3861 20.0818 16.5363 20.5324 16.6863 20.9829C16.8201 21.3839 16.9542 21.7848 17.0886 22.1855C17.4616 23.2996 17.8282 24.4152 18.1839 25.535C18.2564 25.7601 18.3289 25.9852 18.4036 26.2171C18.5433 26.6516 18.6811 27.0867 18.8166 27.5225C19.2179 28.76 19.6614 29.9934 20.5755 30.952C20.9531 31.0942 20.9531 31.0942 21.3303 31.1407C21.5818 31.2036 21.8334 31.2665 22.085 31.3294C21.8963 31.5181 21.8963 31.5181 21.2005 31.6124C20.7342 31.6022 20.473 31.5802 20.0921 31.3053C19.1713 30.2555 18.7743 29.0783 18.335 27.7682C18.2552 27.5377 18.1755 27.3072 18.0933 27.0698C17.3549 24.9291 16.663 22.7723 15.9886 20.6107C15.8856 20.2832 15.7785 19.957 15.6699 19.6313Z" fill="#7E726C"/>
<path d="M35.6695 3.78211C34.0804 4.26661 32.5261 4.46511 30.8757 4.60351C30.7174 4.61701 30.5591 4.63051 30.396 4.64451C30.2533 4.65571 30.1106 4.6669 29.9636 4.6784C29.6272 4.6923 29.6272 4.6923 29.4431 4.9142C29.1287 4.9219 28.814 4.9223 28.4997 4.9142C28.4997 4.8519 28.4997 4.7897 28.4997 4.7255C28.3722 4.7218 28.2446 4.71801 28.1133 4.71421C27.5344 4.69621 26.9557 4.67551 26.377 4.65481C26.1764 4.64891 25.9757 4.6431 25.769 4.6371C25.5756 4.6298 25.3822 4.6225 25.183 4.615C25.0052 4.609 24.8273 4.6031 24.6441 4.597C24.1466 4.5352 23.8429 4.3926 23.4053 4.1595C23.5106 4.158 23.6158 4.1564 23.7242 4.1549C24.8325 4.1385 25.9408 4.1197 27.049 4.0996C27.4611 4.0924 27.8731 4.08591 28.2852 4.07991C31.3696 4.04071 31.3696 4.04071 34.4249 3.65341C34.9074 3.59441 35.2131 3.62761 35.6695 3.78211Z" fill="#93786D"/>
<path d="M25.8586 21.895C26.2359 22.0837 26.2359 22.0837 26.4573 22.7453C26.5397 23.0401 26.6205 23.3353 26.7002 23.6307C26.7901 23.9517 26.8801 24.2727 26.97 24.5937C27.1101 25.1007 27.2496 25.6079 27.3884 26.1152C27.5229 26.6044 27.6598 27.0928 27.7969 27.5812C27.8373 27.7316 27.8776 27.882 27.9191 28.037C28.1758 28.9473 28.4752 29.6416 29.0661 30.3856C29.5865 30.6384 29.5865 30.6384 30.151 30.7394C30.4297 30.8029 30.4297 30.8029 30.7141 30.8676C30.8552 30.8953 30.9962 30.9231 31.1416 30.9516C31.1416 31.0139 31.1416 31.0762 31.1416 31.1403C30.0848 31.195 29.4156 31.1705 28.5001 30.5743C27.9458 29.9624 27.7505 29.34 27.5206 28.5541C27.4846 28.4327 27.4486 28.3112 27.4115 28.1861C27.2972 27.7994 27.1852 27.4121 27.0732 27.0248C26.9973 26.7666 26.9213 26.5085 26.8451 26.2505C26.64 25.554 26.4372 24.8568 26.2359 24.1592C26.1661 23.925 26.0963 23.6909 26.0244 23.4497C25.8739 22.8949 25.824 22.4647 25.8586 21.895Z" fill="#80746E"/>
<path d="M8.12254 1.70654C8.18484 1.70654 8.24704 1.70654 8.31124 1.70654C8.33454 1.91674 8.35794 2.12684 8.38194 2.34334C8.43324 3.03314 8.43324 3.03314 8.87724 3.40464C10.8415 3.86104 12.8855 3.85894 14.8914 3.89994C15.1884 3.90714 15.4854 3.91454 15.7824 3.92204C16.4995 3.93994 17.2166 3.95584 17.9338 3.97074C17.9338 4.03294 17.9338 4.09524 17.9338 4.15934C16.7757 4.17344 15.6176 4.18364 14.4594 4.19044C14.0658 4.19334 13.6721 4.19714 13.2785 4.20214C12.7113 4.20904 12.1442 4.21214 11.5769 4.21464C11.3148 4.21904 11.3148 4.21904 11.0473 4.22354C9.98674 4.22384 9.24934 4.09904 8.31124 3.59334C7.93384 3.21604 7.93384 3.21604 7.89844 2.64994C7.93384 2.08394 7.93384 2.08394 8.12254 1.70654Z" fill="#8F6B5C"/>
<path d="M43.028 14.5366C43.0725 14.6383 43.117 14.74 43.1629 14.8447C43.5854 15.6231 44.1752 16.286 44.7269 16.9762C45.1194 17.5799 45.2045 17.9841 45.2922 18.6876C45.6285 18.9423 45.6285 18.9423 46.0469 19.0649C46.2984 19.1907 46.55 19.3165 46.8016 19.4423C46.8016 19.5668 46.8016 19.6914 46.8016 19.8197C46.08 19.7194 45.6235 19.585 45.1035 19.0649C44.9714 18.745 44.8394 18.425 44.7074 18.105C44.3726 17.3943 43.8739 16.7869 43.3987 16.1651C42.83 15.3862 42.83 15.3862 42.8835 14.8396C42.9312 14.7396 42.9789 14.6396 43.028 14.5366Z" fill="#857B78"/>
<path d="M16.8018 12.6499C17.0508 12.6499 17.2999 12.6499 17.5565 12.6499C17.6158 12.828 17.6752 13.006 17.7363 13.1894C17.7751 13.3056 17.8139 13.4218 17.8538 13.5415C17.9391 13.7976 18.024 14.0539 18.1086 14.3103C18.312 14.9258 18.5207 15.5369 18.7438 16.1456C18.8151 16.3424 18.8864 16.5392 18.9598 16.7419C19.0257 16.9178 19.0916 17.0936 19.1595 17.2748C19.2741 17.8406 19.151 18.0094 18.8772 18.499C18.6347 17.7537 18.3929 17.0083 18.1517 16.2626C18.0696 16.0088 17.9872 15.7552 17.9046 15.5016C17.7861 15.1374 17.6683 14.7729 17.5506 14.4085C17.4794 14.1891 17.4083 13.9698 17.335 13.7438C17.1791 13.216 17.1791 13.216 17.1791 12.8386C17.0546 12.7763 16.9301 12.7141 16.8018 12.6499Z" fill="#8A7B75"/>
<path d="M40.9528 18.3105C41.1414 18.6878 41.1414 18.6878 41.0235 19.301C40.94 20.1362 41.0578 20.4491 41.5188 21.1407C42.2799 21.9453 42.9107 22.0121 43.9716 22.0841C43.9094 22.2086 43.8471 22.3331 43.7829 22.4614C42.852 22.5594 42.2993 22.5782 41.5542 21.9779C40.9293 21.3702 40.6264 20.8473 40.3867 20.0086C40.4299 19.2609 40.5345 18.9378 40.9528 18.3105Z" fill="#8D7D78"/>
<path d="M34.1606 30.0083C34.8368 30.8586 35.375 31.8018 35.9372 32.7291C36.0185 32.8613 36.0999 32.9934 36.1837 33.1296C36.2572 33.2503 36.3306 33.371 36.4063 33.4953C36.6019 33.8125 36.6019 33.8125 36.9908 33.9706C36.9908 34.0951 36.9908 34.2196 36.9908 34.3479C36.4941 34.2797 36.2851 34.2168 35.9545 33.8291C35.8684 33.689 35.7823 33.5489 35.6936 33.4045C35.2104 32.6298 34.6981 31.8871 34.1613 31.1485C33.9719 30.763 33.9719 30.763 34.036 30.3363C34.0771 30.2281 34.1182 30.1198 34.1606 30.0083Z" fill="#8A7F7B"/>
<path d="M38.3112 22.8389C38.3229 22.9556 38.3346 23.0724 38.3466 23.1927C38.3972 23.325 38.4478 23.4573 38.4999 23.5936C38.8143 23.7197 39.1288 23.8454 39.4433 23.971C39.8823 24.2964 40.2941 24.6446 40.711 24.9977C41.1781 25.3168 41.5285 25.4089 42.0848 25.4804C42.0226 25.6049 41.9603 25.7295 41.8961 25.8578C41.2232 25.9447 40.9698 25.8685 40.3852 25.4996C40.1911 25.3454 39.9971 25.1912 39.7971 25.0323C39.602 24.8791 39.407 24.7258 39.206 24.568C39.0353 24.4332 38.8645 24.2985 38.6886 24.1597C38.5018 24.0351 38.315 23.9106 38.1226 23.7823C38.1848 23.471 38.2471 23.1597 38.3112 22.8389Z" fill="#7B706D"/>
<path d="M45.4812 10.3862C45.8717 10.972 46.2437 11.5677 46.6132 12.1668C46.6804 12.2749 46.7475 12.383 46.8167 12.4944C47.0881 12.9344 47.3503 13.367 47.5684 13.8362C47.7486 14.2251 47.7486 14.2251 48.3113 14.5371C47.8949 14.6233 47.8949 14.6233 47.368 14.5371C47.0213 14.0759 46.7544 13.66 46.4835 13.1574C46.3374 12.8987 46.1912 12.64 46.045 12.3813C45.9818 12.2657 45.9187 12.1501 45.8536 12.031C45.6806 11.7259 45.487 11.4327 45.2925 11.1409C45.3632 10.7281 45.3632 10.7281 45.4812 10.3862Z" fill="#887C78"/>
<path d="M36.2357 26.2349C36.298 26.2349 36.3602 26.2349 36.4244 26.2349C36.4609 26.3624 36.4973 26.4898 36.5349 26.6211C36.5841 26.7895 36.6332 26.9578 36.6838 27.1312C36.732 27.2975 36.7801 27.4639 36.8297 27.6353C37.1025 28.5269 37.1025 28.5269 37.7805 29.1005C38.3945 29.2779 38.9978 29.3679 39.6319 29.4425C39.5074 29.567 39.3829 29.6915 39.2546 29.8198C38.3464 29.805 37.9291 29.7783 37.2145 29.2066C36.3651 28.1389 36.167 27.5867 36.2357 26.2349Z" fill="#8C807C"/>
<path d="M47.3677 7.55566C47.413 7.67026 47.4582 7.78486 47.5048 7.90286C47.7986 8.40126 48.0579 8.53586 48.5706 8.79386C49.1604 9.09476 49.6691 9.42266 50.1979 9.81986C50.6031 9.95286 50.6031 9.95286 50.9526 10.0086C50.9526 10.1331 50.9526 10.2576 50.9526 10.3859C50.1046 10.4678 49.7244 10.2568 49.054 9.74906C48.5061 9.33876 47.9914 8.97296 47.3677 8.68776C47.3677 8.31416 47.3677 7.94056 47.3677 7.55566Z" fill="#8E8785"/>
<path d="M12.2734 4.15984C13.0857 4.13634 13.8978 4.11933 14.7102 4.10793C14.9862 4.10323 15.2622 4.09683 15.5381 4.08863C15.9363 4.07713 16.3341 4.07183 16.7325 4.06763C16.9716 4.06273 17.2107 4.05783 17.4571 4.05273C18.3348 4.19393 18.6386 4.47384 19.2546 5.10324C19.2546 5.22774 19.2546 5.35224 19.2546 5.48054C18.3634 5.16744 18.3634 5.16743 18.0747 4.81223C17.5738 4.39423 17.1361 4.45464 16.4929 4.44064C16.2479 4.43394 16.0028 4.42724 15.7504 4.42034C15.4916 4.41594 15.2327 4.41163 14.9739 4.40743C14.7129 4.40113 14.4518 4.39464 14.1908 4.38794C13.5517 4.37234 12.9126 4.35923 12.2734 4.34843C12.2734 4.28623 12.2734 4.22394 12.2734 4.15984Z" fill="#8B8988"/>
<path d="M0.387032 32.4614C0.549932 32.9704 0.571632 33.3321 0.552132 33.8765C0.535932 34.5164 0.535932 34.5164 0.764432 34.985C1.35133 35.4619 1.90463 35.4313 2.65123 35.4803C2.27383 35.8576 2.27383 35.8576 1.74323 35.9284C0.979732 35.8386 0.704532 35.6814 0.198432 35.1029C-0.0488679 34.0808 -0.0311683 33.4455 0.387032 32.4614Z" fill="#928580"/>
<path d="M19.2544 29.8198C19.8063 30.0366 20.0064 30.1931 20.3511 30.6924C20.7429 31.2192 20.7429 31.2192 21.4714 31.1995C21.6738 31.1801 21.8761 31.1606 22.0846 31.1406C22.0224 31.2651 21.9601 31.3896 21.8959 31.5179C21.328 31.5865 20.9369 31.6333 20.3865 31.5179C19.9145 31.1417 19.5637 30.7149 19.2544 30.1972C19.2544 30.0726 19.2544 29.9481 19.2544 29.8198Z" fill="#8B7F79"/>
<path d="M37.5566 26.0459C38.1816 26.0695 38.1816 26.0695 38.8774 26.2346C39.3637 26.9249 39.5174 27.4717 39.4434 28.3101C39.2566 28.4035 39.2566 28.4035 39.0661 28.4987C39.0362 28.3669 39.0062 28.2351 38.9754 28.0993C38.7476 27.0227 38.7476 27.0227 37.993 26.3054C37.849 26.282 37.705 26.2587 37.5566 26.2346C37.5566 26.1723 37.5566 26.1101 37.5566 26.0459Z" fill="#8B746C"/>
<path d="M18.3115 26.8008C18.6888 26.9895 18.6888 26.9895 18.9321 27.627C19.0175 27.8897 19.1015 28.1528 19.1841 28.4164C19.2274 28.5505 19.2707 28.6846 19.3153 28.8228C19.4222 29.1547 19.5274 29.4871 19.6322 29.8197C19.0662 29.631 19.0662 29.631 18.8458 29.233C18.7824 29.0686 18.7189 28.9042 18.6535 28.7348C18.5885 28.5723 18.5236 28.4098 18.4567 28.2424C18.3088 27.735 18.2841 27.3261 18.3115 26.8008Z" fill="#7E716B"/>
<path d="M17.5568 24.1592C17.8619 24.727 18.0617 25.2858 18.2407 25.9045C18.2899 26.0728 18.339 26.2411 18.3896 26.4145C18.4261 26.542 18.4626 26.6694 18.5002 26.8007C18.3757 26.9252 18.2511 27.0498 18.1228 27.1781C17.9907 26.8173 17.8615 26.4555 17.7337 26.0932C17.6614 25.8918 17.5892 25.6904 17.5148 25.4829C17.3719 24.9285 17.3546 24.6831 17.5568 24.1592Z" fill="#8B7C75"/>
<path d="M41.896 18.6875C42.922 18.7559 42.922 18.7559 43.3819 19.2771C43.6367 19.9282 43.6349 20.4471 43.5942 21.1404C43.3734 20.6988 43.1597 20.2585 42.9574 19.8078C42.6534 19.2584 42.4219 19.0139 41.896 18.6875Z" fill="#7C716D"/>
<path d="M7.55662 29.4424C7.61882 29.4424 7.68112 29.4424 7.74532 29.4424C7.80752 29.8782 7.86982 30.3141 7.93392 30.7631C8.24532 30.8254 8.55662 30.8876 8.87732 30.9518C8.81512 31.0763 8.75282 31.2008 8.68872 31.3292C8.24052 31.3527 8.24052 31.3527 7.74532 31.3292C7.36792 30.9518 7.36792 30.9518 7.33252 30.3858C7.36792 29.8197 7.36792 29.8197 7.55662 29.4424Z" fill="#997C70"/>
<path d="M22.2737 10.9521C22.6115 11.4589 22.7757 11.8318 22.9576 12.4026C23.0068 12.5551 23.0559 12.7075 23.1065 12.8647C23.143 12.9807 23.1795 13.0967 23.2171 13.2162C23.0925 13.3408 22.968 13.4653 22.8397 13.5936C22.7079 13.2603 22.5786 12.926 22.4506 12.5912C22.3783 12.4052 22.3061 12.2191 22.2317 12.0274C22.085 11.5181 22.085 11.5181 22.2737 10.9521Z" fill="#8C7D77"/>
<path d="M35.8584 30.9521C36.7301 31.1389 37.6018 31.3258 38.4999 31.5182C38.4999 31.5805 38.4999 31.6426 38.4999 31.7068C37.515 31.7408 36.7881 31.7013 35.8584 31.3294C35.8584 31.2049 35.8584 31.0804 35.8584 30.9521Z" fill="#8B756D"/>
<path d="M30.5754 19.8198C30.6416 19.9404 30.7077 20.0611 30.7759 20.1854C31.2871 20.7295 31.7374 20.7085 32.4622 20.7632C32.3999 20.8877 32.3377 21.0123 32.2735 21.1406C31.7546 21.1877 31.7546 21.1877 31.1414 21.1406C30.6933 20.7632 30.6933 20.7632 30.3867 20.3858C30.449 20.199 30.5112 20.0123 30.5754 19.8198Z" fill="#917F78"/>
<path d="M15.6699 19.6313C15.8567 19.6313 16.0435 19.6313 16.2359 19.6313C16.4227 20.2539 16.6095 20.8767 16.802 21.5182C16.6774 21.6427 16.5529 21.7671 16.4246 21.8954C16.1755 21.1483 15.9265 20.4011 15.6699 19.6313Z" fill="#8D7C74"/>
<path d="M28.6887 4.34814C29.6226 4.34814 30.5566 4.34814 31.5189 4.34814C31.5189 4.41044 31.5189 4.47264 31.5189 4.53684C31.3849 4.54824 31.2508 4.55974 31.1128 4.57144C30.9394 4.58724 30.7659 4.60314 30.5873 4.61934C30.4143 4.63474 30.2414 4.65004 30.0632 4.66584C29.6393 4.68034 29.6393 4.68034 29.4434 4.91424C29.129 4.92184 28.8144 4.92224 28.5 4.91424C28.5623 4.72744 28.6245 4.54064 28.6887 4.34814Z" fill="#C3BBB8"/>
<path d="M26.2358 35.6689C26.4226 35.7312 26.6094 35.7935 26.8019 35.8576C27.2223 35.8707 27.6431 35.8736 28.0637 35.8694C28.2862 35.8677 28.5088 35.866 28.7381 35.8642C28.9085 35.862 29.079 35.8599 29.2547 35.8576C28.5893 36.3012 28.3059 36.2754 27.5212 36.2585C27.3162 36.2551 27.1112 36.2517 26.8999 36.2482C26.6646 36.2417 26.6646 36.2417 26.4245 36.235C26.3623 36.0482 26.3 35.8614 26.2358 35.6689Z" fill="#87817F"/>
<path d="M41.896 21.895C42.5809 21.9573 43.2659 22.0196 43.9715 22.0837C43.9092 22.2082 43.847 22.3328 43.7828 22.4611C42.3206 22.4847 42.3206 22.4847 41.896 22.2724C41.896 22.1479 41.896 22.0233 41.896 21.895Z" fill="#9C827A"/>
<path d="M44.7261 15.6689C45.2242 15.7935 45.7223 15.918 46.2356 16.0463C46.111 16.4199 45.9865 16.7935 45.8582 17.1784C45.7337 17.0538 45.6091 16.9293 45.4808 16.801C45.6054 16.801 45.7299 16.801 45.8582 16.801C45.8582 16.6142 45.8582 16.4274 45.8582 16.235C45.6091 16.2972 45.3601 16.3595 45.1035 16.4236C44.9789 16.1746 44.8544 15.9255 44.7261 15.6689Z" fill="#9F8075"/>
<path d="M49.0659 9.25391C49.1671 9.30841 49.2683 9.36281 49.3725 9.41901C49.8872 9.66281 50.4105 9.83611 50.9527 10.0086C50.9527 10.1331 50.9527 10.2577 50.9527 10.386C50.54 10.4449 50.54 10.4449 50.0093 10.386C49.4787 9.92611 49.4787 9.92611 49.0659 9.44261C49.0659 9.38031 49.0659 9.31801 49.0659 9.25391Z" fill="#8E776F"/>
<path d="M35.8586 32.8389C35.9753 32.9907 36.092 33.1424 36.2123 33.2988C36.5645 33.7896 36.5645 33.7896 36.9906 33.971C36.9906 34.0955 36.9906 34.22 36.9906 34.3483C36.4694 34.2764 36.2658 34.1906 35.8939 33.8059C35.82 33.6736 35.7461 33.5413 35.6699 33.4049C35.7321 33.2181 35.7944 33.0314 35.8586 32.8389Z" fill="#938885"/>
<path d="M40.1978 25.103C40.334 25.1302 40.4702 25.1574 40.6105 25.1855C40.8732 25.238 40.8732 25.238 41.1412 25.2916C41.4557 25.3545 41.7701 25.4174 42.0846 25.4803C42.0223 25.6048 41.9601 25.7294 41.8959 25.8577C41.4714 25.9048 41.4714 25.9048 40.9525 25.8577C40.5162 25.4803 40.5162 25.4803 40.1978 25.103Z" fill="#9C8178"/>
<path d="M29.0661 14.7256C29.4348 15.2786 29.5655 15.5856 29.6321 16.235C29.5076 16.3595 29.3831 16.4841 29.2548 16.6124C29.1866 16.3336 29.1201 16.0544 29.0543 15.7751C29.0171 15.6197 28.9799 15.4643 28.9415 15.3041C28.9098 15.1111 28.9098 15.1111 28.8774 14.9142C28.9397 14.852 29.0019 14.7897 29.0661 14.7256Z" fill="#91827C"/>
<path d="M21.519 9.44238C21.6435 9.44238 21.7681 9.44238 21.8964 9.44238C22.2911 10.2784 22.2911 10.2784 22.203 10.8221C22.164 10.9271 22.1251 11.0322 22.085 11.1405C21.519 10.0792 21.519 10.0792 21.519 9.44238Z" fill="#7D6C64"/>
<path d="M38.3112 22.8389C38.3307 22.9595 38.3502 23.0802 38.3702 23.2045C38.413 23.3329 38.4558 23.4613 38.4999 23.5936C38.6867 23.6559 38.8735 23.7181 39.066 23.7823C39.066 23.9068 39.066 24.0314 39.066 24.1597C38.599 23.9729 38.599 23.9729 38.1226 23.7823C38.1848 23.471 38.2471 23.1597 38.3112 22.8389Z" fill="#988A86"/>
</svg>
